# Tiled2Unity generated file. Do not modify by hand.
# Wavefront file for 'OverworldTest_mesh_0002.obj'

# Vertices (Count = 672)
v 0 -1 0
v -1 -1 0
v -1 0 0
v 0 0 0
v -1 -1 0
v -2 -1 0
v -2 0 0
v -1 0 0
v -2 -1 0
v -3 -1 0
v -3 0 0
v -2 0 0
v -3 -1 0
v -4 -1 0
v -4 0 0
v -3 0 0
v -4 -1 0
v -5 -1 0
v -5 0 0
v -4 0 0
v -5 -1 0
v -6 -1 0
v -6 0 0
v -5 0 0
v -6 -1 0
v -7 -1 0
v -7 0 0
v -6 0 0
v -7 -1 0
v -8 -1 0
v -8 0 0
v -7 0 0
v -8 -1 0
v -9 -1 0
v -9 0 0
v -8 0 0
v -9 -1 0
v -10 -1 0
v -10 0 0
v -9 0 0
v -10 -1 0
v -11 -1 0
v -11 0 0
v -10 0 0
v -11 -1 0
v -12 -1 0
v -12 0 0
v -11 0 0
v -12 -1 0
v -13 -1 0
v -13 0 0
v -12 0 0
v -17 -1 0
v -18 -1 0
v -18 0 0
v -17 0 0
v -18 -1 0
v -19 -1 0
v -19 0 0
v -18 0 0
v -19 -1 0
v -20 -1 0
v -20 0 0
v -19 0 0
v -20 -1 0
v -21 -1 0
v -21 0 0
v -20 0 0
v -21 -1 0
v -22 -1 0
v -22 0 0
v -21 0 0
v -22 -1 0
v -23 -1 0
v -23 0 0
v -22 0 0
v -23 -1 0
v -24 -1 0
v -24 0 0
v -23 0 0
v -24 -1 0
v -25 -1 0
v -25 0 0
v -24 0 0
v 0 -2 0
v -1 -2 0
v -1 -1 0
v 0 -1 0
v -24 -2 0
v -25 -2 0
v -25 -1 0
v -24 -1 0
v 0 -3 0
v -1 -3 0
v -1 -2 0
v 0 -2 0
v -10 -3 0
v -11 -3 0
v -11 -2 0
v -10 -2 0
v -11 -3 0
v -12 -3 0
v -12 -2 0
v -11 -2 0
v -24 -3 0
v -25 -3 0
v -25 -2 0
v -24 -2 0
v 0 -4 0
v -1 -4 0
v -1 -3 0
v 0 -3 0
v -10 -4 0
v -11 -4 0
v -11 -3 0
v -10 -3 0
v -11 -4 0
v -12 -4 0
v -12 -3 0
v -11 -3 0
v -24 -4 0
v -25 -4 0
v -25 -3 0
v -24 -3 0
v 0 -5 0
v -1 -5 0
v -1 -4 0
v 0 -4 0
v -4 -5 0
v -5 -5 0
v -5 -4 0
v -4 -4 0
v -5 -5 0
v -6 -5 0
v -6 -4 0
v -5 -4 0
v -6 -5 0
v -7 -5 0
v -7 -4 0
v -6 -4 0
v -7 -5 0
v -8 -5 0
v -8 -4 0
v -7 -4 0
v -8 -5 0
v -9 -5 0
v -9 -4 0
v -8 -4 0
v -10 -5 0
v -11 -5 0
v -11 -4 0
v -10 -4 0
v -11 -5 0
v -12 -5 0
v -12 -4 0
v -11 -4 0
v -18 -5 0
v -19 -5 0
v -19 -4 0
v -18 -4 0
v -20 -5 0
v -21 -5 0
v -21 -4 0
v -20 -4 0
v -21 -5 0
v -22 -5 0
v -22 -4 0
v -21 -4 0
v -22 -5 0
v -23 -5 0
v -23 -4 0
v -22 -4 0
v -24 -5 0
v -25 -5 0
v -25 -4 0
v -24 -4 0
v 0 -6 0
v -1 -6 0
v -1 -5 0
v 0 -5 0
v -4 -6 0
v -5 -6 0
v -5 -5 0
v -4 -5 0
v -5 -6 0
v -6 -6 0
v -6 -5 0
v -5 -5 0
v -6 -6 0
v -7 -6 0
v -7 -5 0
v -6 -5 0
v -7 -6 0
v -8 -6 0
v -8 -5 0
v -7 -5 0
v -8 -6 0
v -9 -6 0
v -9 -5 0
v -8 -5 0
v -23 -6 0
v -24 -6 0
v -24 -5 0
v -23 -5 0
v -24 -6 0
v -25 -6 0
v -25 -5 0
v -24 -5 0
v 0 -7 0
v -1 -7 0
v -1 -6 0
v 0 -6 0
v -1 -7 0
v -2 -7 0
v -2 -6 0
v -1 -6 0
v -2 -7 0
v -3 -7 0
v -3 -6 0
v -2 -6 0
v -4 -7 0
v -5 -7 0
v -5 -6 0
v -4 -6 0
v -5 -7 0
v -6 -7 0
v -6 -6 0
v -5 -6 0
v -6 -7 0
v -7 -7 0
v -7 -6 0
v -6 -6 0
v -7 -7 0
v -8 -7 0
v -8 -6 0
v -7 -6 0
v -8 -7 0
v -9 -7 0
v -9 -6 0
v -8 -6 0
v -23 -7 0
v -24 -7 0
v -24 -6 0
v -23 -6 0
v -24 -7 0
v -25 -7 0
v -25 -6 0
v -24 -6 0
v 0 -8 0
v -1 -8 0
v -1 -7 0
v 0 -7 0
v -1 -8 0
v -2 -8 0
v -2 -7 0
v -1 -7 0
v -2 -8 0
v -3 -8 0
v -3 -7 0
v -2 -7 0
v -4 -8 0
v -5 -8 0
v -5 -7 0
v -4 -7 0
v -5 -8 0
v -6 -8 0
v -6 -7 0
v -5 -7 0
v -6 -8 0
v -7 -8 0
v -7 -7 0
v -6 -7 0
v -7 -8 0
v -8 -8 0
v -8 -7 0
v -7 -7 0
v -8 -8 0
v -9 -8 0
v -9 -7 0
v -8 -7 0
v -10 -8 0
v -11 -8 0
v -11 -7 0
v -10 -7 0
v -11 -8 0
v -12 -8 0
v -12 -7 0
v -11 -7 0
v -18 -8 0
v -19 -8 0
v -19 -7 0
v -18 -7 0
v -19 -8 0
v -20 -8 0
v -20 -7 0
v -19 -7 0
v -23 -8 0
v -24 -8 0
v -24 -7 0
v -23 -7 0
v -24 -8 0
v -25 -8 0
v -25 -7 0
v -24 -7 0
v 0 -9 0
v -1 -9 0
v -1 -8 0
v 0 -8 0
v -4 -9 0
v -5 -9 0
v -5 -8 0
v -4 -8 0
v -5 -9 0
v -6 -9 0
v -6 -8 0
v -5 -8 0
v -6 -9 0
v -7 -9 0
v -7 -8 0
v -6 -8 0
v -7 -9 0
v -8 -9 0
v -8 -8 0
v -7 -8 0
v -8 -9 0
v -9 -9 0
v -9 -8 0
v -8 -8 0
v -10 -9 0
v -11 -9 0
v -11 -8 0
v -10 -8 0
v -11 -9 0
v -12 -9 0
v -12 -8 0
v -11 -8 0
v -18 -9 0
v -19 -9 0
v -19 -8 0
v -18 -8 0
v -19 -9 0
v -20 -9 0
v -20 -8 0
v -19 -8 0
v -23 -9 0
v -24 -9 0
v -24 -8 0
v -23 -8 0
v -24 -9 0
v -25 -9 0
v -25 -8 0
v -24 -8 0
v 0 -10 0
v -1 -10 0
v -1 -9 0
v 0 -9 0
v -23 -10 0
v -24 -10 0
v -24 -9 0
v -23 -9 0
v -24 -10 0
v -25 -10 0
v -25 -9 0
v -24 -9 0
v 0 -11 0
v -1 -11 0
v -1 -10 0
v 0 -10 0
v -10 -11 0
v -11 -11 0
v -11 -10 0
v -10 -10 0
v 0 -12 0
v -1 -12 0
v -1 -11 0
v 0 -11 0
v -3 -12 0
v -4 -12 0
v -4 -11 0
v -3 -11 0
v -4 -12 0
v -5 -12 0
v -5 -11 0
v -4 -11 0
v -11 -12 0
v -12 -12 0
v -12 -11 0
v -11 -11 0
v 0 -13 0
v -1 -13 0
v -1 -12 0
v 0 -12 0
v -3 -13 0
v -4 -13 0
v -4 -12 0
v -3 -12 0
v -4 -13 0
v -5 -13 0
v -5 -12 0
v -4 -12 0
v 0 -14 0
v -1 -14 0
v -1 -13 0
v 0 -13 0
v 0 -15 0
v -1 -15 0
v -1 -14 0
v 0 -14 0
v -8 -15 0
v -9 -15 0
v -9 -14 0
v -8 -14 0
v -19 -15 0
v -20 -15 0
v -20 -14 0
v -19 -14 0
v -24 -15 0
v -25 -15 0
v -25 -14 0
v -24 -14 0
v -20 -16 0
v -21 -16 0
v -21 -15 0
v -20 -15 0
v -21 -16 0
v -22 -16 0
v -22 -15 0
v -21 -15 0
v -24 -16 0
v -25 -16 0
v -25 -15 0
v -24 -15 0
v -20 -17 0
v -21 -17 0
v -21 -16 0
v -20 -16 0
v -21 -17 0
v -22 -17 0
v -22 -16 0
v -21 -16 0
v -24 -17 0
v -25 -17 0
v -25 -16 0
v -24 -16 0
v -17 -18 0
v -18 -18 0
v -18 -17 0
v -17 -17 0
v -24 -18 0
v -25 -18 0
v -25 -17 0
v -24 -17 0
v -24 -19 0
v -25 -19 0
v -25 -18 0
v -24 -18 0
v 0 -20 0
v -1 -20 0
v -1 -19 0
v 0 -19 0
v -7 -20 0
v -8 -20 0
v -8 -19 0
v -7 -19 0
v -8 -20 0
v -9 -20 0
v -9 -19 0
v -8 -19 0
v -17 -20 0
v -18 -20 0
v -18 -19 0
v -17 -19 0
v -18 -20 0
v -19 -20 0
v -19 -19 0
v -18 -19 0
v -21 -20 0
v -22 -20 0
v -22 -19 0
v -21 -19 0
v -22 -20 0
v -23 -20 0
v -23 -19 0
v -22 -19 0
v -24 -20 0
v -25 -20 0
v -25 -19 0
v -24 -19 0
v 0 -21 0
v -1 -21 0
v -1 -20 0
v 0 -20 0
v -7 -21 0
v -8 -21 0
v -8 -20 0
v -7 -20 0
v -8 -21 0
v -9 -21 0
v -9 -20 0
v -8 -20 0
v -17 -21 0
v -18 -21 0
v -18 -20 0
v -17 -20 0
v -18 -21 0
v -19 -21 0
v -19 -20 0
v -18 -20 0
v -21 -21 0
v -22 -21 0
v -22 -20 0
v -21 -20 0
v -22 -21 0
v -23 -21 0
v -23 -20 0
v -22 -20 0
v -24 -21 0
v -25 -21 0
v -25 -20 0
v -24 -20 0
v 0 -22 0
v -1 -22 0
v -1 -21 0
v 0 -21 0
v -2 -22 0
v -3 -22 0
v -3 -21 0
v -2 -21 0
v -3 -22 0
v -4 -22 0
v -4 -21 0
v -3 -21 0
v -4 -22 0
v -5 -22 0
v -5 -21 0
v -4 -21 0
v -17 -22 0
v -18 -22 0
v -18 -21 0
v -17 -21 0
v -18 -22 0
v -19 -22 0
v -19 -21 0
v -18 -21 0
v -24 -22 0
v -25 -22 0
v -25 -21 0
v -24 -21 0
v 0 -23 0
v -1 -23 0
v -1 -22 0
v 0 -22 0
v -8 -23 0
v -9 -23 0
v -9 -22 0
v -8 -22 0
v -9 -23 0
v -10 -23 0
v -10 -22 0
v -9 -22 0
v -17 -23 0
v -18 -23 0
v -18 -22 0
v -17 -22 0
v -18 -23 0
v -19 -23 0
v -19 -22 0
v -18 -22 0
v -24 -23 0
v -25 -23 0
v -25 -22 0
v -24 -22 0
v 0 -24 0
v -1 -24 0
v -1 -23 0
v 0 -23 0
v -8 -24 0
v -9 -24 0
v -9 -23 0
v -8 -23 0
v -9 -24 0
v -10 -24 0
v -10 -23 0
v -9 -23 0
v -24 -24 0
v -25 -24 0
v -25 -23 0
v -24 -23 0
v 0 -25 0
v -1 -25 0
v -1 -24 0
v 0 -24 0
v -1 -25 0
v -2 -25 0
v -2 -24 0
v -1 -24 0
v -2 -25 0
v -3 -25 0
v -3 -24 0
v -2 -24 0
v -3 -25 0
v -4 -25 0
v -4 -24 0
v -3 -24 0
v -4 -25 0
v -5 -25 0
v -5 -24 0
v -4 -24 0
v -5 -25 0
v -6 -25 0
v -6 -24 0
v -5 -24 0
v -6 -25 0
v -7 -25 0
v -7 -24 0
v -6 -24 0
v -7 -25 0
v -8 -25 0
v -8 -24 0
v -7 -24 0
v -8 -25 0
v -9 -25 0
v -9 -24 0
v -8 -24 0
v -9 -25 0
v -10 -25 0
v -10 -24 0
v -9 -24 0
v -10 -25 0
v -11 -25 0
v -11 -24 0
v -10 -24 0
v -15 -25 0
v -16 -25 0
v -16 -24 0
v -15 -24 0
v -16 -25 0
v -17 -25 0
v -17 -24 0
v -16 -24 0
v -17 -25 0
v -18 -25 0
v -18 -24 0
v -17 -24 0
v -18 -25 0
v -19 -25 0
v -19 -24 0
v -18 -24 0
v -19 -25 0
v -20 -25 0
v -20 -24 0
v -19 -24 0
v -20 -25 0
v -21 -25 0
v -21 -24 0
v -20 -24 0
v -21 -25 0
v -22 -25 0
v -22 -24 0
v -21 -24 0
v -22 -25 0
v -23 -25 0
v -23 -24 0
v -22 -24 0
v -23 -25 0
v -24 -25 0
v -24 -24 0
v -23 -24 0
v -24 -25 0
v -25 -25 0
v -25 -24 0
v -24 -24 0

# Texture cooridinates (Count = 116)
vt 0.1 0.4444444
vt 0.125 0.4444444
vt 0.125 0.4722222
vt 0.1 0.4722222
vt 0.15 0.4444444
vt 0.15 0.4722222
vt 0.15 0.5
vt 0.175 0.5
vt 0.175 0.5277778
vt 0.15 0.5277778
vt 0.125 0.5
vt 0.125 0.5277778
vt 0.075 0.4444444
vt 0.075 0.4722222
vt 0.175 0.4722222
vt 0.2 0.4722222
vt 0.2 0.5
vt 0.325 0.8333333
vt 0.35 0.8333333
vt 0.35 0.8611111
vt 0.325 0.8611111
vt 0.375 0.8333333
vt 0.375 0.8611111
vt 0.325 0.8055556
vt 0.35 0.8055556
vt 0.375 0.8055556
vt 0.15 0.9722222
vt 0.175 0.9722222
vt 0.175 1
vt 0.15 1
vt 0.2 0.9722222
vt 0.2 1
vt 0.225 0.9722222
vt 0.225 1
vt 0.25 0.9722222
vt 0.25 1
vt 0.275 0.9722222
vt 0.275 1
vt 0.325 0.7777778
vt 0.35 0.7777778
vt 0.375 0.7777778
vt 0.175 0.8333333
vt 0.2 0.8333333
vt 0.2 0.8611111
vt 0.175 0.8611111
vt 0.075 0.8333333
vt 0.1 0.8333333
vt 0.1 0.8611111
vt 0.075 0.8611111
vt 0.125 0.8333333
vt 0.125 0.8611111
vt 0.15 0.8333333
vt 0.15 0.8611111
vt 0.15 0.9444444
vt 0.175 0.9444444
vt 0.2 0.9444444
vt 0.225 0.9444444
vt 0.25 0.9444444
vt 0.275 0.9444444
vt 0.15 0.5555556
vt 0.125 0.5555556
vt 0.2 0.5277778
vt 0.2 0.5555556
vt 0.175 0.5555556
vt 0.875 0.75
vt 0.9 0.75
vt 0.9 0.7777778
vt 0.875 0.7777778
vt 0.925 0.75
vt 0.925 0.7777778
vt 0.15 0.9166667
vt 0.175 0.9166667
vt 0.2 0.9166667
vt 0.225 0.9166667
vt 0.25 0.9166667
vt 0.275 0.9166667
vt 0.05 0.5277778
vt 0.075 0.5277778
vt 0.075 0.5555556
vt 0.05 0.5555556
vt 0.875 0.7222222
vt 0.9 0.7222222
vt 0.925 0.7222222
vt 0.15 0.8888889
vt 0.175 0.8888889
vt 0.2 0.8888889
vt 0.225 0.8888889
vt 0.25 0.8888889
vt 0.275 0.8888889
vt 0.225 0.6666666
vt 0.25 0.6666666
vt 0.25 0.6944444
vt 0.225 0.6944444
vt 0.275 0.6666666
vt 0.275 0.6944444
vt 0.225 0.8611111
vt 0.25 0.8611111
vt 0.275 0.8611111
vt 0.225 0.6388889
vt 0.25 0.6388889
vt 0.275 0.6388889
vt 0.1 0.9444444
vt 0.125 0.9444444
vt 0.125 0.9722222
vt 0.1 0.9722222
vt 0.1 0.9166667
vt 0.125 0.9166667
vt 0.775 0.8888889
vt 0.8 0.8888889
vt 0.8 0.9166667
vt 0.775 0.9166667
vt 0.825 0.8888889
vt 0.825 0.9166667
vt 0.775 0.8611111
vt 0.8 0.8611111
vt 0.825 0.8611111

# Normal
vn 0 0 -1

# Mesh description
g OverworldTest_mesh_0002

# Faces
f 1/1/1 2/2/1 3/3/1 4/4/1
f 5/2/1 6/5/1 7/6/1 8/3/1
f 9/2/1 10/5/1 11/6/1 12/3/1
f 13/2/1 14/5/1 15/6/1 16/3/1
f 17/2/1 18/5/1 19/6/1 20/3/1
f 21/2/1 22/5/1 23/6/1 24/3/1
f 25/2/1 26/5/1 27/6/1 28/3/1
f 29/2/1 30/5/1 31/6/1 32/3/1
f 33/2/1 34/5/1 35/6/1 36/3/1
f 37/2/1 38/5/1 39/6/1 40/3/1
f 41/2/1 42/5/1 43/6/1 44/3/1
f 45/2/1 46/5/1 47/6/1 48/3/1
f 49/7/1 50/8/1 51/9/1 52/10/1
f 53/11/1 54/7/1 55/10/1 56/12/1
f 57/2/1 58/5/1 59/6/1 60/3/1
f 61/2/1 62/5/1 63/6/1 64/3/1
f 65/2/1 66/5/1 67/6/1 68/3/1
f 69/2/1 70/5/1 71/6/1 72/3/1
f 73/2/1 74/5/1 75/6/1 76/3/1
f 77/2/1 78/5/1 79/6/1 80/3/1
f 81/13/1 82/1/1 83/4/1 84/14/1
f 85/15/1 86/16/1 87/17/1 88/8/1
f 89/6/1 90/15/1 91/8/1 92/7/1
f 93/15/1 94/16/1 95/17/1 96/8/1
f 97/18/1 98/19/1 99/20/1 100/21/1
f 101/19/1 102/22/1 103/23/1 104/20/1
f 105/6/1 106/15/1 107/8/1 108/7/1
f 109/15/1 110/16/1 111/17/1 112/8/1
f 113/24/1 114/25/1 115/19/1 116/18/1
f 117/25/1 118/26/1 119/22/1 120/19/1
f 121/6/1 122/15/1 123/8/1 124/7/1
f 125/15/1 126/16/1 127/17/1 128/8/1
f 129/27/1 130/28/1 131/29/1 132/30/1
f 133/28/1 134/31/1 135/32/1 136/29/1
f 137/31/1 138/33/1 139/34/1 140/32/1
f 141/33/1 142/35/1 143/36/1 144/34/1
f 145/35/1 146/37/1 147/38/1 148/36/1
f 149/39/1 150/40/1 151/25/1 152/24/1
f 153/40/1 154/41/1 155/26/1 156/25/1
f 157/42/1 158/43/1 159/44/1 160/45/1
f 161/46/1 162/47/1 163/48/1 164/49/1
f 165/47/1 166/50/1 167/51/1 168/48/1
f 169/50/1 170/52/1 171/53/1 172/51/1
f 173/6/1 174/15/1 175/8/1 176/7/1
f 177/15/1 178/16/1 179/17/1 180/8/1
f 181/54/1 182/55/1 183/28/1 184/27/1
f 185/55/1 186/56/1 187/31/1 188/28/1
f 189/56/1 190/57/1 191/33/1 192/31/1
f 193/57/1 194/58/1 195/35/1 196/33/1
f 197/58/1 198/59/1 199/37/1 200/35/1
f 201/12/1 202/10/1 203/60/1 204/61/1
f 205/9/1 206/62/1 207/63/1 208/64/1
f 209/15/1 210/16/1 211/17/1 212/8/1
f 213/65/1 214/66/1 215/67/1 216/68/1
f 217/66/1 218/69/1 219/70/1 220/67/1
f 221/71/1 222/72/1 223/55/1 224/54/1
f 225/72/1 226/73/1 227/56/1 228/55/1
f 229/73/1 230/74/1 231/57/1 232/56/1
f 233/74/1 234/75/1 235/58/1 236/57/1
f 237/75/1 238/76/1 239/59/1 240/58/1
f 241/6/1 242/15/1 243/8/1 244/7/1
f 245/77/1 246/78/1 247/79/1 248/80/1
f 249/15/1 250/16/1 251/17/1 252/8/1
f 253/81/1 254/82/1 255/66/1 256/65/1
f 257/82/1 258/83/1 259/69/1 260/66/1
f 261/84/1 262/85/1 263/72/1 264/71/1
f 265/85/1 266/86/1 267/73/1 268/72/1
f 269/86/1 270/87/1 271/74/1 272/73/1
f 273/87/1 274/88/1 275/75/1 276/74/1
f 277/88/1 278/89/1 279/76/1 280/75/1
f 281/12/1 282/10/1 283/60/1 284/61/1
f 285/10/1 286/9/1 287/64/1 288/60/1
f 289/90/1 290/91/1 291/92/1 292/93/1
f 293/91/1 294/94/1 295/95/1 296/92/1
f 297/6/1 298/15/1 299/8/1 300/7/1
f 301/77/1 302/78/1 303/79/1 304/80/1
f 305/15/1 306/16/1 307/17/1 308/8/1
f 309/53/1 310/45/1 311/85/1 312/84/1
f 313/45/1 314/44/1 315/86/1 316/85/1
f 317/44/1 318/96/1 319/87/1 320/86/1
f 321/96/1 322/97/1 323/88/1 324/87/1
f 325/97/1 326/98/1 327/89/1 328/88/1
f 329/11/1 330/7/1 331/10/1 332/12/1
f 333/7/1 334/8/1 335/9/1 336/10/1
f 337/99/1 338/100/1 339/91/1 340/90/1
f 341/100/1 342/101/1 343/94/1 344/91/1
f 345/6/1 346/15/1 347/8/1 348/7/1
f 349/77/1 350/78/1 351/79/1 352/80/1
f 353/15/1 354/16/1 355/17/1 356/8/1
f 357/11/1 358/7/1 359/10/1 360/12/1
f 361/2/1 362/5/1 363/6/1 364/3/1
f 365/15/1 366/16/1 367/17/1 368/8/1
f 369/42/1 370/43/1 371/44/1 372/45/1
f 373/15/1 374/16/1 375/17/1 376/8/1
f 377/102/1 378/103/1 379/104/1 380/105/1
f 381/103/1 382/54/1 383/27/1 384/104/1
f 385/52/1 386/42/1 387/45/1 388/53/1
f 389/15/1 390/16/1 391/17/1 392/8/1
f 393/106/1 394/107/1 395/103/1 396/102/1
f 397/107/1 398/71/1 399/54/1 400/103/1
f 401/15/1 402/16/1 403/17/1 404/8/1
f 405/7/1 406/8/1 407/9/1 408/10/1
f 409/52/1 410/42/1 411/45/1 412/53/1
f 413/52/1 414/42/1 415/45/1 416/53/1
f 417/12/1 418/10/1 419/60/1 420/61/1
f 421/102/1 422/103/1 423/104/1 424/105/1
f 425/103/1 426/54/1 427/27/1 428/104/1
f 429/6/1 430/15/1 431/8/1 432/7/1
f 433/106/1 434/107/1 435/103/1 436/102/1
f 437/107/1 438/71/1 439/54/1 440/103/1
f 441/6/1 442/15/1 443/8/1 444/7/1
f 445/52/1 446/42/1 447/45/1 448/53/1
f 449/6/1 450/15/1 451/8/1 452/7/1
f 453/6/1 454/15/1 455/8/1 456/7/1
f 457/10/1 458/9/1 459/64/1 460/60/1
f 461/12/1 462/10/1 463/60/1 464/61/1
f 465/10/1 466/9/1 467/64/1 468/60/1
f 469/12/1 470/10/1 471/60/1 472/61/1
f 473/10/1 474/9/1 475/64/1 476/60/1
f 477/108/1 478/109/1 479/110/1 480/111/1
f 481/109/1 482/112/1 483/113/1 484/110/1
f 485/6/1 486/15/1 487/8/1 488/7/1
f 489/15/1 490/16/1 491/17/1 492/8/1
f 493/11/1 494/7/1 495/10/1 496/12/1
f 497/7/1 498/8/1 499/9/1 500/10/1
f 501/11/1 502/7/1 503/10/1 504/12/1
f 505/7/1 506/8/1 507/9/1 508/10/1
f 509/114/1 510/115/1 511/109/1 512/108/1
f 513/115/1 514/116/1 515/112/1 516/109/1
f 517/6/1 518/15/1 519/8/1 520/7/1
f 521/15/1 522/16/1 523/17/1 524/8/1
f 525/46/1 526/47/1 527/48/1 528/49/1
f 529/47/1 530/50/1 531/51/1 532/48/1
f 533/50/1 534/52/1 535/53/1 536/51/1
f 537/102/1 538/103/1 539/104/1 540/105/1
f 541/103/1 542/54/1 543/27/1 544/104/1
f 545/6/1 546/15/1 547/8/1 548/7/1
f 549/15/1 550/16/1 551/17/1 552/8/1
f 553/108/1 554/109/1 555/110/1 556/111/1
f 557/109/1 558/112/1 559/113/1 560/110/1
f 561/106/1 562/107/1 563/103/1 564/102/1
f 565/107/1 566/71/1 567/54/1 568/103/1
f 569/6/1 570/15/1 571/8/1 572/7/1
f 573/15/1 574/16/1 575/17/1 576/8/1
f 577/114/1 578/115/1 579/109/1 580/108/1
f 581/115/1 582/116/1 583/112/1 584/109/1
f 585/6/1 586/15/1 587/8/1 588/7/1
f 589/8/1 590/17/1 591/62/1 592/9/1
f 593/3/1 594/6/1 595/7/1 596/11/1
f 597/3/1 598/6/1 599/7/1 600/11/1
f 601/3/1 602/6/1 603/7/1 604/11/1
f 605/3/1 606/6/1 607/7/1 608/11/1
f 609/3/1 610/6/1 611/7/1 612/11/1
f 613/3/1 614/6/1 615/7/1 616/11/1
f 617/3/1 618/6/1 619/7/1 620/11/1
f 621/3/1 622/6/1 623/7/1 624/11/1
f 625/3/1 626/6/1 627/7/1 628/11/1
f 629/10/1 630/9/1 631/64/1 632/60/1
f 633/12/1 634/10/1 635/60/1 636/61/1
f 637/3/1 638/6/1 639/7/1 640/11/1
f 641/3/1 642/6/1 643/7/1 644/11/1
f 645/3/1 646/6/1 647/7/1 648/11/1
f 649/3/1 650/6/1 651/7/1 652/11/1
f 653/3/1 654/6/1 655/7/1 656/11/1
f 657/3/1 658/6/1 659/7/1 660/11/1
f 661/3/1 662/6/1 663/7/1 664/11/1
f 665/3/1 666/6/1 667/7/1 668/11/1
f 669/9/1 670/62/1 671/63/1 672/64/1

